# xmcd CD database file generated by Grip 3.2.0
# 
# Track frame offsets:
#       150
#       29747
#       55157
#       89752
#       114897
#       145030
#       169117
#       193442
#       228849
#       257711
# 
# Disc length: 3932 seconds
# 
# Revision: 1
# Processed by: cddbd v1.5.2PL0 Copyright (c) Steve Scherf et al.
# Submitted via: Grip 3.2.0
# 
DISCID=8b0f5a0a
DTITLE=Gary Burton - Generations
DYEAR=2004
DGENRE=Jazz
TTITLE0=First Impression
TTITLE1=Early
TTITLE2=Gorgeous
TTITLE3=Wheatland
TTITLE4=Take Another Look
TTITLE5=Syndrome
TTITLE6=Test Of Time
TTITLE7=The Title Will Follow
TTITLE8=Ladies In Mercedes
TTITLE9=Heroes Sin Nombre
EXTD=
EXTT0=
EXTT1=
EXTT2=
EXTT3=
EXTT4=
EXTT5=
EXTT6=
EXTT7=
EXTT8=
EXTT9=
PLAYORDER=
